<?xml version="1.0" standalone="no"?>
<!DOCTYPE svg PUBLIC "-//W3C//DTD SVG 20010904//EN"
 "http://www.w3.org/TR/2001/REC-SVG-20010904/DTD/svg10.dtd">
<svg version="1.0" xmlns="http://www.w3.org/2000/svg"
 width="512.000000pt" height="432.000000pt" viewBox="0 0 512.000000 432.000000"
 preserveAspectRatio="xMidYMid meet">

<g transform="translate(0.000000,432.000000) scale(0.100000,-0.100000)"
fill="#000000" stroke="none">
<path d="M335 4306 c-160 -39 -280 -158 -321 -316 -62 -242 105 -490 356 -530
90 -14 4290 -14 4380 0 251 40 418 288 356 530 -42 162 -169 284 -334 319 -80
17 -4368 14 -4437 -3z"/>
<path d="M327 2579 c-96 -23 -213 -110 -264 -197 -132 -225 -44 -502 195 -615
l67 -32 2235 0 2235 0 67 32 c341 161 341 625 0 786 l-67 32 -2215 2 c-1266 0
-2231 -3 -2253 -8z"/>
<path d="M360 859 c-187 -31 -343 -201 -357 -391 -16 -219 129 -411 345 -457
75 -16 4349 -16 4424 0 165 35 292 157 334 319 62 242 -105 490 -356 530 -82
13 -4310 12 -4390 -1z"/>
</g>
</svg>
